<?xml version="1.0" standalone="no"?>
<!DOCTYPE svg PUBLIC "-//W3C//DTD SVG 20010904//EN"
 "http://www.w3.org/TR/2001/REC-SVG-20010904/DTD/svg10.dtd">
<svg version="1.0" xmlns="http://www.w3.org/2000/svg"
 width="616.000000pt" height="616.000000pt" viewBox="0 0 616.000000 616.000000"
 preserveAspectRatio="xMidYMid meet">
<metadata>
Created by potrace 1.11, written by Peter Selinger 2001-2013
</metadata>
<g transform="translate(0.000000,616.000000) scale(0.100000,-0.100000)"
fill="#000000" stroke="none">
<path d="M2748 5571 c-137 -170 -248 -314 -248 -320 0 -7 332 -11 1094 -11
602 0 1101 -3 1108 -5 8 -3 22 -19 31 -34 16 -27 17 -91 17 -775 l0 -746 338
2 337 3 0 785 c0 877 3 832 -72 990 -91 190 -248 320 -473 393 -64 21 -80 22
-975 24 l-910 3 -247 -309z"/>
<path d="M1600 4961 l0 -618 -62 -13 c-362 -74 -658 -297 -772 -582 -14 -36
-26 -71 -26 -77 0 -8 129 -11 430 -11 l430 0 0 -1245 c0 -751 4 -1245 9 -1245
5 0 49 14 97 31 298 105 515 331 594 619 19 73 20 99 20 957 l0 883 873 0
c536 0 897 4 937 10 199 31 374 196 409 386 15 77 14 567 0 636 -27 131 -139
271 -263 331 -116 57 -113 57 -1073 57 l-883 0 0 250 0 250 -360 0 -360 0 0
-619z m2124 -492 c33 -26 35 -70 4 -99 -23 -21 -15 -21 -1315 -25 l-88 0 -3
73 -3 72 689 0 c682 0 690 0 716 -21z"/>
<path d="M2870 3520 c-97 -5 -123 -10 -167 -33 -112 -58 -207 -194 -238 -342
-22 -104 -21 -638 1 -738 36 -160 140 -300 260 -348 l59 -24 950 -3 c859 -2
951 -4 967 -19 22 -20 24 -85 4 -106 -12 -11 -151 -15 -849 -20 l-834 -7 -74
-26 c-213 -76 -386 -228 -488 -430 -36 -73 -79 -188 -95 -257 l-6 -27 1332 2
1333 3 58 29 c114 56 203 174 244 326 16 56 18 111 18 410 0 332 -1 348 -23
418 -41 131 -100 219 -186 276 -105 69 -65 67 -1099 60 -906 -7 -928 -7 -942
12 -22 29 -19 87 6 110 19 17 59 18 862 24 l842 5 80 32 c209 84 357 217 456
409 44 85 94 237 85 259 -5 13 -143 15 -1223 13 -670 -1 -1270 -4 -1333 -8z"/>
<path d="M724 3497 c-3 -8 -3 -585 -1 -1283 3 -1177 4 -1273 21 -1328 56 -187
161 -330 316 -431 72 -47 114 -67 210 -98 l65 -22 1576 -3 1575 -2 251 312
251 313 -1761 5 c-1368 4 -1767 8 -1783 17 -12 7 -27 27 -33 44 -8 23 -11 389
-11 1260 l0 1229 -335 0 c-269 0 -337 -3 -341 -13z"/>
</g>
</svg>
